HIERARCHY
ROOT Hips
{
    OFFSET 0.000000 0.000000 0.000000
    CHANNELS 6 Xposition Yposition Zposition Zrotation Xrotation Yrotation
    JOINT Spine
    {
        OFFSET -0.000000 7.246840 0.000000
        CHANNELS 3 Zrotation Xrotation Yrotation
        JOINT Spine1
        {
            OFFSET -0.000000 20.289354 0.000000
            CHANNELS 3 Zrotation Xrotation Yrotation
            JOINT Neck
            {
                OFFSET -0.000000 20.206032 1.836912
                CHANNELS 3 Zrotation Xrotation Yrotation
                JOINT Head
                {
                    OFFSET -0.000000 12.372654 -1.767522
                    CHANNELS 3 Zrotation Xrotation Yrotation
                    End Site
                    {
                        OFFSET -0.000000 22.094025 0.000000
                    }
                }
            }
            JOINT LeftShoulder
            {
                OFFSET 3.465871 17.201674 -0.568930
                CHANNELS 3 Zrotation Xrotation Yrotation
                JOINT LeftArm
                {
                    OFFSET 14.070313 0.000000 0.000000
                    CHANNELS 3 Zrotation Xrotation Yrotation
                    JOINT LeftForeArm
                    {
                        OFFSET 26.549477 0.000000 0.000000
                        CHANNELS 3 Zrotation Xrotation Yrotation
                        JOINT LeftHand
                        {
                            OFFSET 18.880413 0.000000 0.000000
                            CHANNELS 3 Zrotation Xrotation Yrotation
                            End Site
                            {
                                OFFSET 13.256415 0.000000 0.000000
                            }
                        }
                    }
                }
            }
            JOINT RightShoulder
            {
                OFFSET -3.526370 17.201674 -0.568930
                CHANNELS 3 Zrotation Xrotation Yrotation
                JOINT RightArm
                {
                    OFFSET -14.070313 0.000000 0.000000
                    CHANNELS 3 Zrotation Xrotation Yrotation
                    JOINT RightForeArm
                    {
                        OFFSET -26.549477 0.000000 0.000000
                        CHANNELS 3 Zrotation Xrotation Yrotation
                        JOINT RightHand
                        {
                            OFFSET -18.880413 0.000000 0.000000
                            CHANNELS 3 Zrotation Xrotation Yrotation
                            End Site
                            {
                                OFFSET -13.256415 0.000000 0.000000
                            }
                        }
                    }
                }
            }
        }
    }
    JOINT LeftUpLeg
    {
        OFFSET 8.837609 0.000000 0.000000
        CHANNELS 3 Zrotation Xrotation Yrotation
        JOINT LeftLeg
        {
            OFFSET -0.000000 -41.345005 0.000000
            CHANNELS 3 Zrotation Xrotation Yrotation
            JOINT LeftFoot
            {
                OFFSET -0.000000 -35.500874 0.000000
                CHANNELS 3 Zrotation Xrotation Yrotation
                JOINT LeftToeBase
                {
                    OFFSET -0.000000 -5.744446 13.256415
                    CHANNELS 3 Zrotation Xrotation Yrotation
                    End Site
                    {
                        OFFSET -0.000000 0.000000 3.535044
                    }
                }
            }
        }
    }
    JOINT RightUpLeg
    {
        OFFSET -8.837609 0.000000 0.000000
        CHANNELS 3 Zrotation Xrotation Yrotation
        JOINT RightLeg
        {
            OFFSET -0.000000 -41.345005 0.000000
            CHANNELS 3 Zrotation Xrotation Yrotation
            JOINT RightFoot
            {
                OFFSET -0.000000 -35.500874 0.000000
                CHANNELS 3 Zrotation Xrotation Yrotation
                JOINT RightToeBase
                {
                    OFFSET -0.000000 -5.744446 13.256415
                    CHANNELS 3 Zrotation Xrotation Yrotation
                    End Site
                    {
                        OFFSET -0.000000 0.000000 3.535044
                    }
                }
            }
        }
    }
}
MOTION
Frames:    10
Frame Time:    0.010000
12.894901    82.451042    12.908010    3.464020    2.968683    0.522602    -2.511632    -13.577385    -0.132056    -5.864661    0.416802    0.188611    4.709985    32.571152    -3.492425    2.988029    -5.007057    -2.316414    20.871790    3.340441    5.629387    -33.790527    9.495521    -7.838076    7.905160    -9.859260    -15.164204    -27.268227    -8.309490    -2.125283    -17.751465    3.089642    10.130658    8.024114    6.629964    13.157995    -5.231637    -3.793188    6.003778    9.459335    -1.932094    19.027054    -1.247841    6.752354    -2.775059    -1.969791    -9.946375    -9.081464    1.612371    1.349885    1.506349    -0.323132    -1.250700    0.455800    -8.496566    5.478954    0.447968    7.592409    -9.699734    3.612974    -0.382197    -0.199655    -9.341242    -0.817022    -1.317911    1.486391    
12.906851    82.457314    12.886175    3.467859    3.001355    0.408416    -2.388262    -13.571869    -0.044994    -5.888019    0.383746    0.259237    4.624162    32.453491    -3.499011    2.812346    -4.885358    -2.378417    20.818434    3.294285    5.671845    -33.698650    9.529720    -7.881284    7.902024    -9.813334    -15.234058    -27.481415    -8.309660    -1.898575    -17.741501    3.072597    10.173314    7.962057    6.618800    13.180726    -5.344139    -3.990012    6.020273    9.532007    -2.128785    18.811323    -1.274564    6.707267    -2.742588    -1.935735    -9.942443    -9.100089    1.637518    1.348848    1.584156    -0.356169    -1.220852    0.502308    -8.486051    5.394176    0.408669    7.552027    -9.681936    3.640996    -0.328436    -0.174859    -9.267518    -0.816017    -1.272174    1.483810    
12.919929    82.466263    12.865684    3.472174    3.024613    0.308645    -2.284635    -13.570648    0.034119    -5.896134    0.367510    0.325097    4.602392    32.354275    -3.486948    2.592751    -4.803904    -2.416454    20.798061    3.281093    5.689264    -33.642006    9.411399    -7.932167    7.864655    -9.659970    -15.275569    -27.692226    -8.186758    -1.764563    -17.712500    3.070852    10.222730    7.916394    6.584036    13.180217    -5.456960    -4.115923    6.057211    9.679168    -2.242760    18.580387    -1.298295    6.677309    -2.779687    -1.919005    -9.943491    -9.000349    1.603524    1.374452    1.632091    -0.352955    -1.278585    0.497952    -8.482923    5.311359    0.350442    7.538674    -9.635594    3.673853    -0.349710    -0.151092    -9.174095    -0.805325    -1.243962    1.463913    
12.930538    82.476089    12.843362    3.467479    3.046750    0.226915    -2.194400    -13.573972    0.102095    -5.871037    0.357395    0.381698    4.563849    32.269989    -3.503086    2.397196    -4.723154    -2.481014    20.758606    3.308378    5.674126    -33.592613    9.342785    -7.958272    7.875157    -9.610160    -15.311429    -27.832186    -8.150766    -1.682268    -17.690170    3.060907    10.273702    7.890699    6.557597    13.169449    -5.582852    -4.394986    6.068399    9.940331    -2.476325    18.533588    -1.314073    6.640087    -2.798063    -1.861725    -9.945366    -9.068409    1.592336    1.389263    1.794411    -0.330979    -1.450145    0.467439    -8.466866    5.221838    0.259775    7.517814    -9.564138    3.711149    -0.299527    -0.148499    -9.092155    -0.827763    -1.211958    1.504164    
12.944810    82.488235    12.823658    3.465317    3.065893    0.174922    -2.116815    -13.583565    0.150619    -5.830296    0.360189    0.421089    4.471734    32.200012    -3.487032    2.279511    -4.659097    -2.505006    20.716404    3.311732    5.693961    -33.546902    9.317392    -8.008677    7.888910    -9.600554    -15.286942    -27.863125    -8.117448    -1.776218    -17.683411    3.066852    10.317868    7.886652    6.565701    13.148403    -5.567801    -4.322321    6.067120    10.056080    -2.398690    18.385777    -1.338563    6.596748    -2.787170    -1.843661    -9.911998    -9.020077    1.586006    1.395381    1.809017    -0.345182    -1.263216    0.486940    -8.458260    5.149042    0.159255    7.701302    -9.560017    3.316929    -0.488573    -0.057523    -8.534280    -0.814670    -1.225390    1.480595    
12.957302    82.498840    12.805995    3.464798    3.075753    0.149224    -2.062399    -13.584201    0.183435    -5.769416    0.358232    0.447225    4.752010    32.161659    -3.533050    1.682987    -4.679327    -2.618862    20.699650    3.293874    5.707121    -33.538273    9.296410    -8.050398    7.898115    -9.650368    -15.244525    -27.795897    -8.122819    -1.969957    -17.671154    3.057801    10.352268    8.015934    6.271262    13.164949    -5.558373    -4.231275    5.935906    10.092651    -2.297943    18.501144    -1.363460    6.564643    -2.776650    -1.843962    -9.879846    -8.879759    1.643129    1.389305    1.679061    -0.350327    -1.263465    0.494198    -8.456824    5.100331    0.070591    7.697451    -9.513470    3.322968    -0.481656    -0.053480    -8.453297    -0.829649    -1.199724    1.507387    
12.971462    82.507637    12.791568    3.471387    3.077449    0.164823    -2.027423    -13.568000    0.192655    -5.742128    0.333279    0.450548    4.726190    32.140003    -3.532185    1.610633    -4.658573    -2.636621    20.778740    3.319047    5.735680    -33.580158    9.195305    -8.140454    7.925957    -9.675900    -15.135893    -27.848783    -8.082629    -2.249883    -17.628296    3.102060    10.382867    8.046314    6.320689    13.145197    -5.539138    -4.314278    5.888642    10.310483    -2.345147    18.539169    -1.392449    6.541334    -2.806434    -1.799470    -9.868303    -8.920159    1.636794    1.404852    1.743508    -0.339975    -1.253892    0.479567    -8.474070    5.078873    -0.029046    7.716367    -9.478952    3.389920    -0.473067    -0.051783    -8.449835    -0.838292    -1.173962    1.522655    
12.986684    82.512840    12.779957    3.486631    3.071660    0.213335    -2.003754    -13.567446    0.190491    -5.709683    0.343658    0.446037    4.746047    32.142349    -3.555076    1.475255    -4.683586    -2.681576    20.810640    3.321394    5.710355    -33.369984    9.983886    -8.027822    7.894643    -10.167886    -15.374859    -27.782198    -8.564608    -2.254459    -17.584419    3.137711    10.391455    8.111422    6.323730    13.161825    -5.439625    -4.261303    5.734167    10.363982    -2.292532    18.573748    -1.429836    6.519402    -2.793766    -1.781143    -9.831929    -8.974973    1.631778    1.411467    1.743536    -0.342100    -1.286554    0.482661    -8.502342    5.087385    -0.100569    7.732292    -9.478724    3.373500    -0.481630    -0.041866    -8.400582    -0.818635    -1.163045    1.486775    
13.003048    82.515045    12.769966    3.509033    3.071873    0.294824    -2.030260    -13.580735    0.162073    -5.601671    0.364156    0.421823    4.337962    32.163609    -3.506911    1.847953    -4.668968    -2.627091    20.759184    3.333854    5.683846    -33.476013    8.884911    -8.203383    7.925210    -9.716853    -15.145415    -27.852901    -8.118991    -2.266573    -17.619946    2.856179    10.436055    8.225089    6.908830    13.216983    -5.311162    -4.439223    5.325012    10.408726    -2.478584    18.683735    -1.475705    6.494515    -2.825422    -1.772781    -9.811122    -8.897337    1.641154    1.423690    1.633851    -0.346245    -1.286033    0.488508    -8.543372    5.110163    -0.163701    7.756676    -9.497064    3.379280    -0.489329    -0.042083    -8.414079    -0.817892    -1.157963    1.485342    
13.018460    82.512321    12.761612    3.536177    3.062062    0.408913    -2.084841    -13.582351    0.109284    -5.466076    0.375553    0.375594    4.259117    32.208214    -3.510392    1.767583    -4.716357    -2.655116    20.703331    3.326223    5.652223    -33.384312    8.721833    -8.227444    7.942762    -9.701175    -15.143656    -27.880415    -8.123212    -2.174068    -17.607296    2.926752    10.454144    8.315784    6.830163    13.232808    -5.062242    -4.030651    5.196889    10.269230    -2.146067    18.288391    -1.512480    6.462559    -2.733282    -1.796636    -9.742997    -9.036292    1.694533    1.401686    1.561947    -0.336345    -1.270173    0.474494    -8.587257    5.157458    -0.208024    7.777228    -9.532924    3.363522    -0.492183    -0.043605    -8.447973    -0.812120    -1.153429    1.474786    
